<svg width="24" height="24" viewBox="0 0 24 24" fill="none" xmlns="http://www.w3.org/2000/svg">
<path d="M2.13364 1.00031H21.0791C21.1031 0.998601 21.1271 1.00401 21.148 1.01587C21.1696 1.02666 21.1874 1.0437 21.1992 1.06477C21.2121 1.08475 21.2198 1.1077 21.2214 1.13146C21.2235 1.15522 21.2189 1.17911 21.2081 1.20036C19.5737 4.49756 17.1121 7.31451 14.0638 9.37606C10.5303 11.7374 6.38546 13.018 2.13587 13.0616C2.11761 13.066 2.09855 13.066 2.0803 13.0616C2.06281 13.0555 2.04689 13.0456 2.03362 13.0327C2.02075 13.0189 2.01024 13.0032 2.0025 12.986C1.99938 12.9683 1.99938 12.9503 2.0025 12.9326V1.15146C1.99917 1.13309 1.99917 1.11426 2.0025 1.09589C2.01002 1.07926 2.02058 1.06419 2.03362 1.05143C2.0468 1.03787 2.06271 1.02726 2.0803 1.02031C2.09655 1.01012 2.11469 1.00331 2.13364 1.00031Z" fill="white"/>
<path d="M14.8708 22.7488C14.2994 22.5375 13.8319 22.1135 13.5659 21.5654C13.2999 21.0173 13.2561 20.3876 13.4437 19.808L16.638 10.6942C16.7399 10.4156 16.897 10.1604 17.0999 9.9439C17.3028 9.72741 17.5474 9.5541 17.8188 9.43434C18.0903 9.31459 18.3831 9.25085 18.6798 9.24696C18.9765 9.24306 19.2709 9.29907 19.5455 9.41165C20.119 9.62345 20.5882 10.0493 20.8543 10.5998C21.1204 11.1503 21.1628 11.7825 20.9725 12.3636L17.7783 21.4774C17.6752 21.755 17.5173 22.0091 17.3139 22.2244C17.1105 22.4397 16.8659 22.6118 16.5945 22.7305C16.3231 22.8491 16.0307 22.9119 15.7345 22.9151C15.4384 22.9182 15.1446 22.8617 14.8708 22.7488Z" fill="white"/>
<path d="M6.22387 23C7.344 23 8.41825 22.5551 9.2103 21.763C10.0023 20.971 10.4473 19.8967 10.4473 18.7766C10.4473 17.6565 10.0023 16.5822 9.2103 15.7902C8.41825 14.9981 7.344 14.5532 6.22387 14.5532C5.10374 14.5532 4.02949 14.9981 3.23744 15.7902C2.44539 16.5822 2.00043 17.6565 2.00043 18.7766C2.00043 19.8967 2.44539 20.971 3.23744 21.763C4.02949 22.5551 5.10374 23 6.22387 23Z" fill="white"/>
</svg>
