<svg width="18" height="18" viewBox="0 0 18 18" fill="none" xmlns="http://www.w3.org/2000/svg">
<path opacity="0.8" d="M17.3866 10.5704C17.3928 10.5427 17.3892 10.5144 17.3772 10.4899C17.6873 9.03508 17.604 7.52326 17.1352 6.11035C16.6561 4.66645 15.7924 3.38048 14.6371 2.39075C13.4818 1.40102 12.0784 0.744975 10.5781 0.493185C9.07778 0.241395 7.53718 0.403382 6.12203 0.961724L6.12138 0.961982C4.76327 1.50676 3.57107 2.39693 2.6629 3.54431C1.75473 4.69168 1.1621 6.05644 0.943755 7.50336L0.943712 7.50335L0.943309 7.50661C0.751396 9.06017 0.982854 10.6367 1.6132 12.0696C2.24285 13.5009 3.24717 14.7356 4.52011 15.6436C5.98197 16.8814 7.87272 17.4934 9.78275 17.3469L9.78281 17.3477L9.79648 17.345C11.7517 16.969 13.5684 16.0702 15.0536 14.7442C15.1261 14.685 15.1641 14.6056 15.1618 14.5208C15.1596 14.4395 15.121 14.3684 15.0709 14.3176C14.9727 14.2179 14.7904 14.1621 14.6347 14.2805L14.6345 14.2803L14.6285 14.2855C13.3979 15.3544 11.9516 16.1457 10.3879 16.6056C9.6049 16.7843 8.79385 16.8028 8.00354 16.6598C7.212 16.5166 6.4577 16.2144 5.78621 15.7715L5.7864 15.7712L5.77839 15.7667C4.48737 15.0478 3.41025 13.9992 2.65694 12.7279C1.90392 11.4571 1.50145 10.0093 1.49057 8.53216C1.51717 7.16592 1.90695 5.83137 2.61992 4.66558C3.33316 3.49934 4.34412 2.54406 5.54885 1.89793C6.75358 1.25181 8.10862 0.938148 9.47473 0.989187C10.8408 1.04023 12.1687 1.45413 13.3219 2.18834C14.6648 3.04591 15.7147 4.2922 16.3317 5.76129C16.9488 7.23043 17.1036 8.85267 16.7757 10.412L16.7752 10.4147C16.7381 10.6124 16.8731 10.7489 17.0116 10.7875C17.0812 10.8068 17.1618 10.8055 17.2342 10.7701C17.31 10.7329 17.3656 10.6635 17.3866 10.5704ZM8.71018 4.95152L8.71013 4.95152L8.7099 4.955L8.43658 9.16134L8.43632 9.16132V9.16323C8.42292 9.20715 8.41943 9.25604 8.43166 9.3059C8.44664 9.36699 8.48292 9.42027 8.53532 9.46219C8.54566 9.47046 8.55708 9.47686 8.5691 9.48132C9.74956 10.4161 10.8754 11.4179 11.9411 12.4818C12.0076 12.5507 12.0914 12.5803 12.1746 12.5737C12.2544 12.5674 12.3249 12.5288 12.3758 12.4779C12.4267 12.427 12.4653 12.3565 12.4716 12.2767C12.4782 12.1935 12.4486 12.1097 12.3797 12.0432C11.3328 10.9949 10.2264 10.0078 9.06602 9.08673L9.33347 4.97085L9.33373 4.97087V4.96293C9.33373 4.86987 9.2984 4.79042 9.23707 4.73533C9.17785 4.68214 9.10216 4.65848 9.03023 4.65848C8.88566 4.65848 8.72839 4.75723 8.71018 4.95152ZM16.045 12.7537C16.1278 12.7537 16.2072 12.7209 16.2657 12.6623C16.3242 12.6038 16.3571 12.5244 16.3571 12.4417C16.3571 12.359 16.3242 12.2796 16.2657 12.2211C16.2072 12.1625 16.1278 12.1297 16.045 12.1297C15.9623 12.1297 15.8829 12.1625 15.8244 12.2211C15.7659 12.2796 15.733 12.359 15.733 12.4417C15.733 12.5244 15.7659 12.6038 15.8244 12.6623C15.8829 12.7209 15.9623 12.7537 16.045 12.7537Z" fill="white" stroke="white" stroke-width="0.244448" stroke-linejoin="round"/>
</svg>
