<?xml version="1.0" standalone="no"?>
<!DOCTYPE svg PUBLIC "-//W3C//DTD SVG 20010904//EN"
 "http://www.w3.org/TR/2001/REC-SVG-20010904/DTD/svg10.dtd">
<svg version="1.0" xmlns="http://www.w3.org/2000/svg"
 width="160.000000pt" height="160.000000pt" viewBox="0 0 160.000000 160.000000"
 preserveAspectRatio="xMidYMid meet">
<metadata>
Created by potrace 1.14, written by Peter Selinger 2001-2017
</metadata>
<g transform="translate(0.000000,160.000000) scale(0.100000,-0.100000)"
fill="#000000" stroke="none">
<path d="M698 1595 c-1 -2 -21 -6 -43 -9 -38 -6 -92 -20 -125 -33 -8 -4 -17
-7 -20 -7 -28 -7 -130 -63 -176 -97 -131 -96 -213 -204 -285 -374 -41 -97 -58
-299 -34 -420 59 -307 290 -554 590 -631 97 -25 294 -25 390 0 276 73 482 271
570 546 33 104 42 265 20 375 -64 330 -309 575 -638 640 -60 11 -239 19 -249
10z"/>
</g>
</svg>
